<?xml version="1.0" encoding="iso-8859-1"?>
<!-- Generator: Adobe Illustrator 21.0.0, SVG Export Plug-In . SVG Version: 6.00 Build 0)  -->
<svg xmlns="http://www.w3.org/2000/svg" xmlns:xlink="http://www.w3.org/1999/xlink" version="1.1" id="Capa_1" x="0px" y="0px" viewBox="0 0 511.512 511.512" style="enable-background:new 0 0 511.512 511.512;" xml:space="preserve" width="512" height="512">
<g>
	<path style="fill:#FF641A;" d="M406.004,50.776c-6.127-4.296-33.622,12.948-40.07,9.348c-4.457-2.489-8.936-4.928-13.515-7.106   c-4.866-2.315-30.994,16.733-35.967,14.751c-5.162-2.057,10.829-25.131,5.543-26.753c-11.427-3.509-23.083-5.933-34.842-7.585   c-7.507-1.054-36.258,19.481-43.809,19.18c-5.925-0.236,9.355-21.45,3.421-21.218c-54.622,2.138-108.618,23.765-150.23,65.377   C44.64,148.666,23.699,219.774,33.196,287.389c0.829,5.896,23.063-9.448,24.319-3.619c1.248,5.795-18.484,32.762-16.735,38.461   c4.665,15.191,11.077,29.926,19.057,44.007c3.522,6.215-13.755,33.456-9.537,39.353c2.025,2.83,25.331-15.584,27.472-12.81   c2.861,3.703,5.574,7.482,8.693,11.044c3.287,3.756,27.702-13.649,31.282-10.069s-13.825,27.995-10.069,31.283   c3.628,3.177,7.475,5.947,11.25,8.855c8.42,6.488,17.084,12.503,26.135,17.646c14.145,8.037,28.943,14.496,44.209,19.184   c5.561,1.708,32.388-18.055,38.044-16.825c5.965,1.296-9.239,23.562-3.202,24.41c67.616,9.497,138.724-11.444,190.618-63.339   c41.612-41.612,63.24-95.608,65.377-150.23c0.232-5.931-20.984,9.352-21.218,3.431c-0.3-7.556,20.234-36.31,19.18-43.82   c-3.844-27.37-13.252-53.907-27.084-78.622c-5.174-9.247-10.913-18.205-17.508-26.788c-5.847-7.613-11.776-15.196-18.748-22.169   c-6.95-6.95-14.357-13.127-21.958-18.933C390.143,75.827,408.696,52.663,406.004,50.776z"/>
	<path style="fill:#F03800;" d="M33.196,287.389c0.829,5.896,23.063-9.448,24.319-3.619c1.248,5.795-18.484,32.762-16.735,38.461   c4.665,15.191,11.077,29.926,19.057,44.007c3.522,6.215-13.755,33.456-9.537,39.353c2.025,2.83,25.331-15.584,27.472-12.81   c2.861,3.703,5.574,7.482,8.693,11.044c3.287,3.756,27.702-13.649,31.282-10.069s-13.825,27.995-10.069,31.283   c3.628,3.177,7.475,5.947,11.25,8.855c8.42,6.488,17.084,12.503,26.135,17.646c14.145,8.037,28.943,14.496,44.209,19.184   c5.561,1.708,32.388-18.055,38.044-16.825c5.965,1.296-9.239,23.562-3.202,24.41c67.616,9.497,138.724-11.444,190.618-63.339   L96.535,96.771C44.64,148.666,23.699,219.774,33.196,287.389z"/>
	<path style="fill:#F03800;" d="M319.274,213.444c-11.694,11.694-30.732,11.694-42.426,0c-11.694-11.694-11.694-30.732,0-42.426   c11.694-11.694,30.732-11.694,42.426,0S330.968,201.749,319.274,213.444z"/>
	<g>
		<path style="fill:#F03800;" d="M322.032,40.98l-74.459,74.459c-23.971,23.971-39.882,53.881-46.032,86.338    c-2.122,10.605-3.183,21.85-3.183,32.879c-0.212,37.123-14.637,71.914-40.729,98.006l-71.064,71.064    c3.181,4.031,6.362,7.636,9.97,11.244c3.606,3.606,7.212,6.787,11.244,9.97l71.064-71.064    c31.82-31.82,49.426-74.034,49.213-119.218c0.001-2.122,0.214-4.031,0.212-6.153c1.697-34.789,15.911-67.245,40.518-91.852    l83.58-83.58C342.608,48.404,332.426,44.163,322.032,40.98z"/>
		<path style="fill:#CD0000;" d="M157.629,332.662l-71.064,71.064c3.181,4.031,6.362,7.636,9.97,11.244    c3.606,3.606,7.212,6.787,11.244,9.97l71.064-71.064c31.82-31.82,49.426-74.034,49.213-119.218    c0.001-2.122,0.214-4.031,0.212-6.153l-26.728-26.728c-2.122,10.605-3.183,21.85-3.183,32.879    C198.146,271.779,183.721,306.57,157.629,332.662z"/>
		<path style="fill:#F03800;" d="M246.725,31.434l-53.033,53.033c-18.455,18.455-34.367,39.033-47.519,61.942    c-3.605,5.728-6.788,11.879-9.97,18.031c-13.364,26.516-30.972,50.913-51.973,71.914l-51.123,51.123    c1.91,11.667,4.242,23.334,7.636,34.79l64.7-64.7c23.335-23.335,42.639-50.275,57.487-79.974c1.486-3.182,3.395-6.365,5.092-9.334    c12.516-23.123,28.426-44.124,46.882-62.579l72.336-72.336C273.666,31.646,260.301,31.011,246.725,31.434z"/>
		<path style="fill:#CD0000;" d="M84.231,236.354l-51.123,51.123c1.91,11.667,4.242,23.334,7.636,34.79l64.7-64.7    c23.335-23.335,42.639-50.275,57.487-79.974c1.486-3.182,3.395-6.365,5.092-9.334l-21.85-21.85    c-3.605,5.728-6.788,11.879-9.97,18.031C122.839,190.956,105.232,215.353,84.231,236.354z"/>
		<path style="fill:#F03800;" d="M374.852,327.571c-8.061,8.061-16.97,14.849-26.941,20.576    c-7.213,4.243-14.849,7.638-22.911,10.183c-22.909,7.636-44.123,20.789-61.305,37.971l-74.459,74.459    c11.455,3.394,23.123,5.727,34.79,7.636l60.882-60.882c14-14,30.97-24.608,49.852-30.759c12.09-4.029,23.97-9.546,34.789-16.97    c9.545-5.728,18.455-12.94,26.517-21.001l84.005-84.005c0.423-13.575-0.212-26.941-1.91-40.517L374.852,327.571z"/>
		<path style="fill:#CD0000;" d="M263.695,396.301l-74.459,74.459c11.455,3.394,23.123,5.727,34.79,7.636l60.882-60.882    c14-14,30.97-24.608,49.852-30.759c12.09-4.029,23.97-9.546,34.789-16.97l-21.638-21.638c-7.213,4.243-14.849,7.638-22.911,10.183    C302.091,365.967,280.878,379.119,263.695,396.301z"/>
	</g>
	<path style="fill:#FFD396;" d="M365.943,60.284c9.333,5.091,18.243,11.031,26.94,17.607c56.216-40.093,86.358-50.52,89.751-50.521   c2.97,8.91-16.141,44.794-49.235,91.462c-30.97,44.123-79.124,102.035-145.946,168.858S162.931,402.453,118.809,433.848   c-46.457,33.305-81.765,52.49-89.826,50.369c-1.696-5.091,8.579-34.883,48.672-91.523c-6.364-8.484-12.516-17.183-17.818-26.304   C-8.683,459.94-5.382,491.854,7.134,504.37c22.061,22.061,81.339-11.337,137.98-52.703   c77.215-56.851,157.825-137.036,163.553-142.764c5.728-5.728,85.701-86.126,142.341-163.13   c41.577-56.853,75.75-116.281,53.476-138.555C491.968-5.298,459.704-8.447,365.943,60.284z"/>
	<path style="fill:#FFB64C;" d="M118.809,433.848c-46.457,33.305-81.765,52.49-89.826,50.369   c-1.696-5.091,8.579-34.883,48.672-91.523c-6.364-8.484-12.516-17.183-17.818-26.304C-8.683,459.94-5.382,491.854,7.134,504.37   c22.061,22.061,81.339-11.337,137.98-52.703c77.215-56.851,157.825-137.036,163.553-142.764l-21.213-21.213   C220.632,354.512,162.931,402.453,118.809,433.848z"/>
</g>















</svg>
